<svg xmlns="http://www.w3.org/2000/svg" fill="none" viewBox="0 0 48 48">
  <path
    fill="#000"
    d="m20.6781 39.981-2.425-.7062c-.2625-.075-.4187-.3563-.3437-.6188l8.8-30.29373c.075-.2625.3562-.41875.6187-.34375l2.425.70625c.2625.075.4188.35625.3438.61875l-8.8 30.29378c-.075.2687-.35.4187-.6188.3437Zm-5.2-7.5687 1.7-1.8125c.1938-.2063.175-.5313-.0312-.7188l-6.6313-5.8812 6.6313-5.8813c.2125-.1875.225-.5125.0312-.7187l-1.7-1.8125c-.1875-.2-.5062-.2125-.7062-.025l-8.61252 8.075c-.2125.2-.2125.5312 0 .7312l8.61252 8.0688c.2.1875.5125.175.7062-.025Zm17.7563.025 8.6062-8.0688c.2125-.2.2125-.5312 0-.7312l-8.6062-8.075c-.2-.1875-.5188-.1813-.7063.025l-1.7 1.8125c-.1937.2062-.175.5312.0313.7187l6.6312 5.8813-6.6312 5.8812c-.2125.1875-.225.5125-.0313.7188l1.7 1.8125c.1938.2.5063.2125.7063.025Z"
  />
</svg>
