<svg xmlns="http://www.w3.org/2000/svg" fill="none" viewBox="0 0 48 48">
  <path fill="#8247E5" d="M33.2585 17.8433c-.658-.3759-1.5039-.3759-2.2559 0l-5.2637 3.1019-3.5718 1.9739-5.1697 3.1018c-.658.376-1.5039.376-2.2559 0l-4.0418-2.4439c-.6579-.376-1.1279-1.1279-1.1279-1.9739v-4.6997c0-.752.37598-1.5039 1.1279-1.9739l4.0418-2.3499c.658-.3759 1.5039-.3759 2.2559 0l4.0418 2.4439c.6579.376 1.1279 1.1279 1.1279 1.9739v3.1018l3.5718-2.0679v-3.1958c0-.7519-.376-1.5039-1.1279-1.9739l-7.5196-4.41774c-.658-.37597-1.5039-.37597-2.2559 0L7.12794 12.9556C6.37598 13.3316 6 14.0836 6 14.8355v8.8355c0 .752.37598 1.5039 1.12794 1.9739l7.61356 4.4178c.658.3759 1.5039.3759 2.2559 0l5.1697-3.0079 3.5718-2.0679 5.1697-3.0078c.658-.376 1.5039-.376 2.2559 0l4.0418 2.3499c.6579.376 1.1279 1.1279 1.1279 1.9739v4.6997c0 .752-.376 1.5039-1.1279 1.9739l-3.9478 2.3499c-.658.376-1.5039.376-2.2559 0l-4.0418-2.3499c-.6579-.376-1.1279-1.1279-1.1279-1.9739v-3.0078l-3.5718 2.0679v3.1018c0 .752.376 1.5039 1.1279 1.9739l7.6136 4.4177c.658.376 1.5039.376 2.2559 0l7.6136-4.4177C41.53 34.7624 42 34.0104 42 33.1645V24.235c0-.752-.376-1.5039-1.1279-1.9739l-7.6136-4.4178Z"/>
</svg>