<svg xmlns="http://www.w3.org/2000/svg" fill="none" viewBox="0 0 48 48">
  <path
    fill="#F3BA2F"
    d="m17.0086 21.1275 6.9912-6.991 6.995 6.9947 4.0679-4.068L23.9998 6 12.9406 17.0595l4.068 4.068Zm-6.9407-1.1961 4.0679 4.068-4.0681 4.0681-4.06794-4.0679 4.06814-4.0682Zm6.9407 6.9411 6.9912 6.991 6.9947-6.9944 4.0702 4.0657-.002.0023L23.9998 42 12.9403 30.9408l-.0057-.0057 4.074-4.0626Zm24.9917-2.8712-4.0681 4.0681-4.068-4.0679 4.0682-4.0681 4.0679 4.0679Z"
  />
  <path
    fill="#F3BA2F"
    d="M28.1258 23.9977h.0017l-4.128-4.128-3.0507 3.0506h-.0002l-.3503.3506-.7231.7231-.0057.0057.0057.0059 4.1243 4.1243 4.128-4.128.002-.0022-.0037-.002Z"
  />
</svg>
