<svg xmlns="http://www.w3.org/2000/svg" fill="none" viewBox="0 0 48 48">
  <path
    fill="#2D374B"
    d="m28.056 22.495 2.6438-4.4861 7.1261 11.0991.0034 2.1301-.0232-14.6575c-.017-.3583-.2072-.686-.5107-.8793L24.4657 8.32145c-.2999-.14756-.6807-.14585-.9803.00467-.0405.02017-.0786.04227-.1148.06637l-.0447.0281-12.4532 7.21651-.0483.0219c-.0621.0286-.125.0649-.1839.1071-.2361.1693-.3929.4197-.4436.7006-.0076.0425-.0133.0858-.0159.1297l.0196 11.9444 6.6376-10.2881c.8357-1.3641 2.6564-1.8035 4.3467-1.7797l1.9838.0524-11.6888 18.7454 1.3779.7932 11.8286-19.5195 5.2284-.019-11.7982 20.0121 4.9167 2.828.5874.3378c.2485.101.5414.1061.792.0156l13.0099-7.5395-2.4873 1.4413L28.056 22.495Zm1.0086 14.528-4.9658-7.7938 3.0314-5.1439 6.5216 10.2793-4.5872 2.6584Z"
  />
  <path
    fill="#28A0F0"
    d="m24.0989 29.2291 4.9657 7.7939 4.5873-2.6585-6.5217-10.2793-3.0313 5.1439Zm13.7304 2.009-.0034-2.1302-7.1261-11.0991-2.6438 4.4861 6.8792 11.1258 2.4874-1.4414c.2439-.1982.3915-.4889.407-.8027l-.0003-.1385Z"
  />
  <path
    fill="#fff"
    d="m7.96741 33.2468 3.51239 2.024 11.6887-18.7453-1.9837-.0524c-1.6903-.0238-3.5111.4156-4.3468 1.7797l-6.6375 10.2881-2.23309 3.431v1.2749ZM29.9147 16.5255l-5.2283.019L12.8577 36.064l4.1345 2.3805 1.1244-1.9069 11.7981-20.0121Z"
  />
  <path
    fill="#96BEDC"
    d="M40.0325 16.4986c-.0437-1.0935-.6357-2.0944-1.5631-2.6772L25.4716 6.34667c-.9174-.46188-2.0633-.46247-2.9822-.00029-.1087.05479-12.64012 7.32252-12.64012 7.32252-.17344.0832-.3405.1823-.49763.2947-.82782.5933-1.33241 1.5153-1.38424 2.5282v15.4801l2.23309-3.4311-.0195-11.9444c.0025-.0436.008-.0866.0158-.1291.0505-.281.2074-.5317.4437-.7011.0589-.0422 12.8044-7.41983 12.8449-7.44008.2996-.15045.6804-.15223.9803-.00467l12.8297 7.37965c.3035.1934.4938.5211.5107.8794v14.7962c-.0155.3137-.1396.6044-.3835.8026l-2.4873 1.4414-1.2834.7438-4.5873 2.6584-4.652 2.6959c-.2505.0906-.5435.0855-.792-.0155l-5.504-3.1658-1.1244 1.907 4.9463 2.8478c.1636.0931.3093.1755.4289.2426.1851.1038.3114.1733.3559.195.3516.1707.8574.2701 1.3132.2701.4179 0 .8255-.0767 1.2111-.2278l13.5121-7.8252c.7755-.6009 1.2317-1.5071 1.2728-2.4888V16.4986Z"
  />
</svg>
