<svg xmlns="http://www.w3.org/2000/svg" fill="none" viewBox="0 0 48 48">
  <path fill="#fff" d="M12.8668 12.1598h22.2424v20.229H12.8668v-20.229Z" />
  <path
    fill="#E84142"
    fill-rule="evenodd"
    d="M42 24c0 9.9412-8.0588 18-18 18-9.9411 0-18-8.0588-18-18 0-9.9411 8.0589-18 18-18 9.9412 0 18 8.0589 18 18Zm-23.1007 7.1631H15.406c-.734 0-1.0966 0-1.3177-.1414-.2388-.1549-.3847-.4113-.4024-.6944-.0133-.2608.168-.5792.5306-1.216l8.6254-15.2034c.367-.6456.5527-.9684.7871-1.0878.252-.1282.5527-.1282.8048 0 .2344.1194.4201.4422.7871 1.0878l1.7732 3.0953.009.0158c.3964.6926.5975 1.0439.6852 1.4125.0973.4024.0973.8269 0 1.2293-.0884.3714-.2874.7252-.6898 1.4283l-4.5307 8.0089-.0117.0206c-.399.6983-.6013 1.0522-.8815 1.3192-.3051.2919-.6722.5041-1.0746.6237-.367.1016-.7782.1016-1.6007.1016Zm8.8217 0h5.0055c.7385 0 1.11 0 1.3312-.1457.2387-.1549.389-.4159.4024-.6987.0127-.2524-.1646-.5585-.5122-1.1582-.0119-.0204-.0239-.0412-.0362-.0624l-2.5073-4.2892-.0285-.0483c-.3523-.5958-.5301-.8966-.7586-1.0129-.2519-.1283-.5484-.1283-.8003 0-.2299.1193-.4156.4333-.7827 1.0656l-2.4983 4.2893-.0086.0147c-.3657.6314-.5485.9469-.5353 1.2057.0177.2831.1636.5438.4024.6987.2167.1414.5881.1414 1.3265.1414Z"
    clip-rule="evenodd"
  />
</svg>
