<svg xmlns="http://www.w3.org/2000/svg" fill="none" viewBox="0 0 48 48">
  <path
    fill="#1969FF"
    d="M22.4487 6.34485c.8704-.4598 2.1949-.4598 3.0653 0l8.882 4.69185c.5243.2769.8122.6896.8638 1.1156h.0085v23.5836c-.0116.4647-.3022.9263-.8723 1.2274l-8.882 4.6919c-.8704.4597-2.1949.4597-3.0653 0l-8.882-4.6919c-.5676-.2999-.84-.7647-.8535-1.2274-.0014-.0475-.0015-.0866-.0001-.1188l.0001-23.306c-.0014-.0328-.0014-.0655-.0001-.098l.0001-.0608h.0039c.0395-.4307.3143-.8328.8496-1.1156l8.882-4.69185ZM33.8702 25.3094l-8.3562 4.4141c-.8704.4598-2.1949.4598-3.0653 0l-8.3375-4.4043v10.3703l8.3375 4.3809c.4927.2633 1.005.5198 1.5039.531l.0288.0004c.4979.0016.9812-.2512 1.4714-.4906l8.4174-4.4595V25.3094Zm-22.6017 9.9138c0 .9036.105 1.4975.3135 1.9159.1728.3468.4321.6118.9055.9343l.027.0183c.1039.0701.2184.1435.3577.2297l.1643.1006.5045.3045-.7236 1.1964-.5647-.3411-.0949-.0582c-.1632-.1009-.2986-.1874-.4248-.2726-1.3492-.9097-1.85244-1.9016-1.86237-3.965l-.00015-.0628h1.39802Zm12.0138-16.2349c-.0647.0222-.1253.0479-.1807.0771l-8.882 4.6919c-.0093.0049-.0182.0098-.0266.0146l-.0076.0044.014.008.0202.0109 8.882 4.6919c.0554.0292.116.055.1807.0772v-9.576Zm1.3981 0v9.576c.0648-.0222.1254-.048.1807-.0772l8.882-4.6919c.0093-.0049.0182-.0098.0267-.0146l.0075-.0043-.0139-.008-.0203-.011-8.882-4.6919c-.0553-.0292-.1159-.0549-.1807-.0771Zm9.1898-5.1631-7.9678 4.209 7.9678 4.2089v-8.4179Zm-19.759.0098v8.3983l7.9492-4.1991-7.9492-4.1992Zm10.7499-6.25377c-.4619-.24399-1.2976-.24399-1.7595 0l-8.882 4.69187c-.0093.0049-.0182.0098-.0266.0146l-.0076.0044.014.0079.0202.0111 8.882 4.6918c.4619.244 1.2976.244 1.7595 0l8.882-4.6918c.0093-.005.0182-.0098.0267-.0146l.0075-.0044-.0139-.008-.0203-.011-8.882-4.69187Zm10.3215.51452.5647.34107.0949.05827c.1633.10079.2986.18739.4248.2725 1.3493.90976 1.8525 1.90161 1.8624 3.96501l.0002.0629h-1.3981c0-.9037-.105-1.4975-.3135-1.916-.1728-.3467-.432-.6118-.9054-.93423l-.0271-.01831c-.1039-.07005-.2183-.14345-.3577-.22969l-.1642-.10064-.5046-.30449.7236-1.19639Z"
  />
</svg>
